<svg xmlns="http://www.w3.org/2000/svg" width="100" height="100" baseProfile="tiny" version="1.2" viewBox="0 0 100 100" id="scooter"><path d="M17.5,95C24.404,95,30,89.404,30,82.5c0-4.508-2.395-8.447-5.973-10.646l1.687-6.747L38.644,85h31.607
	c1.158,5.705,6.202,10,12.249,10C89.404,95,95,89.404,95,82.5S89.404,70,82.5,70c-6.047,0-11.091,4.295-12.249,10H41.356
	L27.37,58.482l1.268-5.072l-1.212-0.303l10.606-42.425L20.606,6.325l-1.213,4.851l12.575,3.144l-9.394,37.575l-1.212-0.303
	L16.75,70.038C10.198,70.428,5,75.849,5,82.5C5,89.404,10.596,95,17.5,95z M82.5,77.5c2.757,0,5,2.243,5,5c0,2.757-2.243,5-5,5
	c-1.842,0-3.437-1.013-4.304-2.5H82.5v-5h-4.305C79.063,78.513,80.658,77.5,82.5,77.5z M16.118,77.719l-1.044,4.175l4.852,1.213
	l1.048-4.19c0.938,0.909,1.527,2.177,1.527,3.584c0,2.757-2.243,5-5,5s-5-2.243-5-5C12.5,80.226,14.036,78.323,16.118,77.719z"></path></svg>